<svg xmlns="http://www.w3.org/2000/svg" version="1.1" xmlns:xlink="http://www.w3.org/1999/xlink" xmlns:svgjs="http://svgjs.dev/svgjs" viewBox="0 0 800 800" opacity="0.62"><defs><linearGradient x1="50%" y1="0%" x2="50%" y2="100%" id="rrreflection-grad"><stop stop-color="hsl(265, 55%, 30%)" stop-opacity="1" offset="45%"></stop><stop stop-color="hsl(265, 55%, 60%)" stop-opacity="1" offset="100%"></stop></linearGradient><linearGradient x1="50%" y1="0%" x2="50%" y2="100%" id="rrreflection-grad-2"><stop stop-color="hsl(265, 55%, 60%)" stop-opacity="1" offset="0%"></stop><stop stop-color="hsl(265, 55%, 30%)" stop-opacity="1" offset="45%"></stop></linearGradient><linearGradient gradientTransform="rotate(270)" x1="50%" y1="0%" x2="50%" y2="100%" id="rrreflection-grad-3"><stop stop-color="hsl(265, 55%, 30%)" stop-opacity="1" offset="45%"></stop><stop stop-color="hsl(265, 55%, 60%)" stop-opacity="1" offset="100%"></stop></linearGradient><linearGradient gradientTransform="rotate(270)" x1="50%" y1="0%" x2="50%" y2="100%" id="rrreflection-grad-4"><stop stop-color="hsl(265, 55%, 60%)" stop-opacity="1" offset="0%"></stop><stop stop-color="hsl(265, 55%, 30%)" stop-opacity="1" offset="45%"></stop></linearGradient></defs><g stroke-width="1.5" stroke="url(#rrreflection-grad)" fill="none"><circle r="377" cx="50%" cy="0"></circle><circle r="364" cx="50%" cy="0"></circle><circle r="351" cx="50%" cy="0"></circle><circle r="338" cx="50%" cy="0"></circle><circle r="325" cx="50%" cy="0"></circle><circle r="312" cx="50%" cy="0"></circle><circle r="299" cx="50%" cy="0"></circle><circle r="286" cx="50%" cy="0"></circle><circle r="273" cx="50%" cy="0"></circle><circle r="260" cx="50%" cy="0"></circle><circle r="247" cx="50%" cy="0"></circle><circle r="234" cx="50%" cy="0"></circle><circle r="221" cx="50%" cy="0"></circle><circle r="208" cx="50%" cy="0"></circle><circle r="195" cx="50%" cy="0"></circle><circle r="182" cx="50%" cy="0"></circle><circle r="169" cx="50%" cy="0"></circle><circle r="156" cx="50%" cy="0"></circle><circle r="143" cx="50%" cy="0"></circle><circle r="130" cx="50%" cy="0"></circle><circle r="117" cx="50%" cy="0"></circle><circle r="104" cx="50%" cy="0"></circle><circle r="91" cx="50%" cy="0"></circle><circle r="78" cx="50%" cy="0"></circle><circle r="65" cx="50%" cy="0"></circle><circle r="52" cx="50%" cy="0"></circle><circle r="39" cx="50%" cy="0"></circle><circle r="26" cx="50%" cy="0"></circle><circle r="13" cx="50%" cy="0"></circle></g><g stroke-width="1.5" stroke="url(#rrreflection-grad-2)" fill="none"><circle r="377" cx="50%" cy="100%"></circle><circle r="364" cx="50%" cy="100%"></circle><circle r="351" cx="50%" cy="100%"></circle><circle r="338" cx="50%" cy="100%"></circle><circle r="325" cx="50%" cy="100%"></circle><circle r="312" cx="50%" cy="100%"></circle><circle r="299" cx="50%" cy="100%"></circle><circle r="286" cx="50%" cy="100%"></circle><circle r="273" cx="50%" cy="100%"></circle><circle r="260" cx="50%" cy="100%"></circle><circle r="247" cx="50%" cy="100%"></circle><circle r="234" cx="50%" cy="100%"></circle><circle r="221" cx="50%" cy="100%"></circle><circle r="208" cx="50%" cy="100%"></circle><circle r="195" cx="50%" cy="100%"></circle><circle r="182" cx="50%" cy="100%"></circle><circle r="169" cx="50%" cy="100%"></circle><circle r="156" cx="50%" cy="100%"></circle><circle r="143" cx="50%" cy="100%"></circle><circle r="130" cx="50%" cy="100%"></circle><circle r="117" cx="50%" cy="100%"></circle><circle r="104" cx="50%" cy="100%"></circle><circle r="91" cx="50%" cy="100%"></circle><circle r="78" cx="50%" cy="100%"></circle><circle r="65" cx="50%" cy="100%"></circle><circle r="52" cx="50%" cy="100%"></circle><circle r="39" cx="50%" cy="100%"></circle><circle r="26" cx="50%" cy="100%"></circle><circle r="13" cx="50%" cy="100%"></circle></g><g stroke-width="1.5" stroke="url(#rrreflection-grad-3)" fill="none"><circle r="377" cx="0" cy="50%"></circle><circle r="364" cx="0" cy="50%"></circle><circle r="351" cx="0" cy="50%"></circle><circle r="338" cx="0" cy="50%"></circle><circle r="325" cx="0" cy="50%"></circle><circle r="312" cx="0" cy="50%"></circle><circle r="299" cx="0" cy="50%"></circle><circle r="286" cx="0" cy="50%"></circle><circle r="273" cx="0" cy="50%"></circle><circle r="260" cx="0" cy="50%"></circle><circle r="247" cx="0" cy="50%"></circle><circle r="234" cx="0" cy="50%"></circle><circle r="221" cx="0" cy="50%"></circle><circle r="208" cx="0" cy="50%"></circle><circle r="195" cx="0" cy="50%"></circle><circle r="182" cx="0" cy="50%"></circle><circle r="169" cx="0" cy="50%"></circle><circle r="156" cx="0" cy="50%"></circle><circle r="143" cx="0" cy="50%"></circle><circle r="130" cx="0" cy="50%"></circle><circle r="117" cx="0" cy="50%"></circle><circle r="104" cx="0" cy="50%"></circle><circle r="91" cx="0" cy="50%"></circle><circle r="78" cx="0" cy="50%"></circle><circle r="65" cx="0" cy="50%"></circle><circle r="52" cx="0" cy="50%"></circle><circle r="39" cx="0" cy="50%"></circle><circle r="26" cx="0" cy="50%"></circle><circle r="13" cx="0" cy="50%"></circle></g><g stroke-width="1.5" stroke="url(#rrreflection-grad-4)" fill="none"><circle r="377" cx="100%" cy="50%"></circle><circle r="364" cx="100%" cy="50%"></circle><circle r="351" cx="100%" cy="50%"></circle><circle r="338" cx="100%" cy="50%"></circle><circle r="325" cx="100%" cy="50%"></circle><circle r="312" cx="100%" cy="50%"></circle><circle r="299" cx="100%" cy="50%"></circle><circle r="286" cx="100%" cy="50%"></circle><circle r="273" cx="100%" cy="50%"></circle><circle r="260" cx="100%" cy="50%"></circle><circle r="247" cx="100%" cy="50%"></circle><circle r="234" cx="100%" cy="50%"></circle><circle r="221" cx="100%" cy="50%"></circle><circle r="208" cx="100%" cy="50%"></circle><circle r="195" cx="100%" cy="50%"></circle><circle r="182" cx="100%" cy="50%"></circle><circle r="169" cx="100%" cy="50%"></circle><circle r="156" cx="100%" cy="50%"></circle><circle r="143" cx="100%" cy="50%"></circle><circle r="130" cx="100%" cy="50%"></circle><circle r="117" cx="100%" cy="50%"></circle><circle r="104" cx="100%" cy="50%"></circle><circle r="91" cx="100%" cy="50%"></circle><circle r="78" cx="100%" cy="50%"></circle><circle r="65" cx="100%" cy="50%"></circle><circle r="52" cx="100%" cy="50%"></circle><circle r="39" cx="100%" cy="50%"></circle><circle r="26" cx="100%" cy="50%"></circle><circle r="13" cx="100%" cy="50%"></circle></g></svg>